<?xml version="1.0"?>
<svg version="1.1" x="0px" y="0px" width="315" height="105" viewBox="0 0 315 105" xmlns="http://www.w3.org/2000/svg">
	<g fill="#FFFFFF">
		<path d="m103.24377,71.34611l3.20361,13.13948l3.20101,0l2.56652,-10.04508l2.38451,10.04508l3.1308,0l3.34923,-13.13948l-2.69395,0l-2.12967,9.84746l-2.31169,-9.84746l-3.18801,0l-2.56392,9.84746l-2.03866,-9.84746l-2.90977,0l0,0l-0.00001,0zm20.69604,-0.0156l0,7.8608c0,1.21956 0.03641,2.23369 0.67348,3.24002c1.24036,1.98145 3.63786,2.27009 4.95103,2.27009c2.65754,0 5.77013,-1.25336 5.77013,-5.16426l0,-8.20665l-2.74595,0l0,7.8608c0,1.32617 -0.14562,1.83843 -0.41865,2.23369c-0.72809,1.13374 -2.09587,1.14154 -2.54573,1.14154c-2.75375,0 -2.86296,-1.79683 -2.86296,-3.23482l0,-8.00902l-2.82136,0l0,0.0078l0.00001,0.00001zm15.49018,13.11868l2.85516,0l0,-5.11485l1.91125,0c0.69169,0 2.02046,0 2.98519,-0.61888c1.03493,-0.67088 1.67462,-1.96065 1.67462,-3.49485c0,-0.67088 -0.10921,-1.62001 -0.80091,-2.45731c-1.09214,-1.30537 -2.67314,-1.43278 -4.56879,-1.43278l-4.06172,0l0.0052,13.11868l0,0zm2.78236,-10.99421l1.41978,0c0.8035,0 2.31429,0 2.31429,1.78903c0,2.00485 -1.69021,2.00485 -2.60293,2.00485l-1.12854,0l-0.0026,-3.79388l0,0zm9.79805,10.99421l2.85516,0l0,-5.11485l1.91385,0c0.69169,0 2.02046,0 2.97999,-0.61888c1.03493,-0.67088 1.67981,-1.96065 1.67981,-3.49485c0,-0.67088 -0.11181,-1.62001 -0.8035,-2.45731c-1.09474,-1.30537 -2.67054,-1.43278 -4.56879,-1.43278l-4.05912,0l0.0026,13.11868l0,0zm2.78236,-10.99421l1.41718,0c0.8035,0 2.31689,0 2.31689,1.78903c0,2.00485 -1.69541,2.00485 -2.60553,2.00485l-1.12854,0l0,-3.79388l0,0zm9.59262,10.99421l9.00495,0l0,-2.17908l-6.18619,0l0,-3.55466l5.60632,0l0,-2.14267l-5.60632,0l0,-3.13341l5.99117,0l0,-2.14787l-8.80993,0l0,13.15768l0,0l0.00001,0zm12.32298,0l2.87076,0l0,-5.31248l2.47812,0c0.47586,0 1.16235,0 1.41718,0.7463c0.18203,0.50707 0.58768,3.84069 0.70989,4.56619l3.1126,0c-0.15082,-0.21843 -0.26263,-0.36145 -0.40045,-0.94393c-0.09101,-0.36664 -0.20283,-1.00113 -0.40045,-2.54833c-0.23923,-1.71102 -0.37964,-2.83957 -2.3637,-3.02158c0.63709,-0.17682 2.74855,-0.7619 2.74855,-3.21921c0,-0.85811 -0.32504,-1.81764 -1.14154,-2.53013c-1.05314,-0.91012 -2.53013,-0.91012 -3.98371,-0.89452l-5.04204,0l-0.0052,13.15768l0,0l0,0.00001zm2.78236,-11.08002l1.89564,0c0.89452,0 1.42238,0 1.85923,0.30424c0.25743,0.16642 0.69429,0.58507 0.69429,1.47699c0,0.92832 -0.52786,1.38598 -0.72549,1.529c-0.45766,0.36664 -1.11294,0.36664 -1.44318,0.36664l-2.27529,0l-0.0052,-3.67687l0,0zm13.52172,11.08002l2.84217,0l0,-10.976l3.9161,0l0,-2.18428l-10.66916,0l0,2.18428l3.9109,0l0,10.976l0,0zm11.43627,-13.15768l-4.7482,13.16028l2.69135,0l0.98552,-2.83957l5.20586,0l0.94393,2.83957l2.83957,0l-4.57139,-13.16028l-3.34663,0l0,0l-0.00001,0zm-0.34585,8.19105l1.94505,-5.60632l1.82284,5.60632l-3.76788,0l0,0l-0.00001,0zm11.17882,4.96664l8.51609,0l0,-2.23369l-5.65052,0l0,-10.90319l-2.87076,0l0.0052,13.13688l0,0l-0.00001,0z"/>
		<path d="m104.28131,45.06455l0,7.8634c0,1.22216 0.03641,2.23629 0.67348,3.24262c1.23776,1.98145 3.63526,2.27009 4.95103,2.27009c2.65494,0 5.77013,-1.25336 5.77013,-5.16426l0,-8.21185l-2.74595,0l0,7.8634c0,1.32877 -0.14822,1.84103 -0.41865,2.23629c-0.72809,1.13374 -2.09587,1.14154 -2.54833,1.14154c-2.75115,0 -2.86036,-1.79683 -2.86036,-3.23742l0,-8.00902l-2.82136,0.0052l0,0l0.00001,0.00001zm15.07153,13.12388l2.65494,0l0,-10.91879l5.09665,10.91879l3.87449,0l0,-13.15768l-2.61853,0l0,10.35192l-4.93543,-10.35192l-4.07212,0l0,13.15768l0,0zm15.39917,0l2.81876,0l0,-13.19409l-2.81876,0l0,13.19409l0,0zm5.64272,-13.10307l4.84182,13.10307l3.07619,0l4.83922,-13.10307l-2.78236,0l-3.45844,10.31812l-3.44024,-10.31812l-3.07619,0l0,0l-0.00001,0zm15.72941,13.10307l9.00495,0l0,-2.18428l-6.18619,0l0,-3.54946l5.60632,0l0,-2.14527l-5.60632,0l0,-3.13341l5.98857,0l0,-2.14527l-8.80733,0l0,13.15768l0,0l0.00001,0zm12.32038,0l2.87076,0l0,-5.31248l2.47812,0c0.47326,0 1.16235,0 1.41718,0.7463c0.18203,0.50707 0.58768,3.84069 0.70989,4.56619l3.1048,0c-0.14302,-0.21843 -0.25483,-0.36664 -0.39265,-0.94393c-0.09101,-0.36664 -0.20283,-1.00113 -0.40045,-2.54573c-0.23923,-1.71102 -0.37964,-2.84217 -2.3663,-3.02418c0.63969,-0.18203 2.75115,-0.7645 2.75115,-3.22181c0,-0.85551 -0.32504,-1.82024 -1.14675,-2.53013c-1.05054,-0.91012 -2.53013,-0.91012 -3.98111,-0.89192l-5.03944,0l-0.0052,13.15768l0,0l0,0.00001zm2.77976,-11.08782l1.89564,0c0.89452,0 1.42238,0 1.85923,0.30944c0.25483,0.16382 0.69169,0.58247 0.69169,1.47439c0,0.92832 -0.52786,1.38338 -0.72809,1.529c-0.45506,0.36405 -1.11034,0.36405 -1.44058,0.36405l-2.27529,0l-0.0026,-3.67687l0,0l0,-0.00001zm10.54695,6.88048c0.0156,1.27416 0.05201,4.51418 5.09405,4.51418c3.63786,0 5.59852,-1.90864 5.59852,-4.28015c0,-2.56392 -2.23109,-3.1828 -4.50637,-3.72887c-1.89564,-0.47326 -2.86296,-0.69169 -2.86296,-1.91125c0,-1.07654 0.85291,-1.78643 2.16868,-1.78643c1.94505,0 2.09587,1.54719 2.12707,2.00485l2.71214,0c0,-0.43686 0,-1.49259 -0.7463,-2.43911c-0.98032,-1.23776 -2.60033,-1.54459 -3.96291,-1.54459c-3.66127,0 -5.20586,1.90864 -5.20586,4.07732c0,2.27529 1.70842,3.20361 4.83662,3.98891c1.67981,0.39525 2.49372,0.59548 2.49372,1.76823c0,1.10774 -0.96472,1.83843 -2.49372,1.83843c-2.42351,0 -2.38711,-1.88004 -2.38711,-2.49892l-2.86556,0l0,-0.0026zm14.0444,4.20734l2.81876,0l0,-13.19409l-2.81876,0l0,13.19409l0,0zm9.59782,0l2.83957,0l0,-10.976l3.9109,0l0,-2.18168l-10.66136,0l0,2.18168l3.9109,0l0,10.976l0,0zm13.94039,-14.14321l1.85923,0l0,-2.14527l-1.85923,0l0,2.14527l0,0zm-3.1282,0l1.85403,0l0,-2.14527l-1.85403,0l0,2.14527l0,0zm0.80091,1.00113l-4.7534,13.14208l2.69655,0l0.98032,-2.83957l5.20586,0l0.94393,2.83957l2.83957,0l-4.56619,-13.14208l-3.34663,0l0,0l-0.00001,0zm-0.34325,8.17284l1.94505,-5.61152l1.81764,5.61152l-3.76268,0l0,0l-0.00001,0zm12.5154,4.96924l2.84217,0l0,-10.976l3.9161,0l0,-2.18168l-10.66916,0l0,2.18168l3.9109,0l0,10.976l0,0z"/>
		<path d="m104.2085,31.92507l4.91462,0c0.50967,0 2.29609,0 3.31282,-0.52786c1.01933,-0.50967 1.92945,-1.54459 1.92945,-3.0944c0,-1.38338 -0.7827,-2.83957 -2.78236,-3.20361l0,-0.03641c0.7619,-0.20023 1.40158,-0.7801 1.48999,-0.88931c0.67348,-0.61888 0.7645,-1.47439 0.7645,-1.96586c0,-0.7645 -0.27303,-2.03866 -1.47179,-2.80316c-1.00113,-0.61888 -2.47552,-0.61888 -3.24002,-0.61888l-4.91462,0l-0.0026,13.13948l0,0l0,0.00001zm2.69135,-11.12162l1.90864,0c0.92832,0 2.31689,0 2.31689,1.63821c0,1.69281 -1.46139,1.69281 -2.25969,1.69281l-1.96586,0l0,-3.33102l0,0l0.00001,0zm0,5.36968l1.62001,0c1.34957,0 3.04239,0 3.04239,1.87744c0,1.76563 -1.46139,1.76563 -2.75375,1.76563l-1.90864,0l0,-3.64307l0,0zm11.01501,5.75194l9.00755,0l0,-2.18168l-6.1888,0l0,-3.55206l5.60372,0l0,-2.14527l-5.60372,0l0,-3.13341l5.98857,0l0,-2.14527l-8.80733,0l0,13.15768l0,0l0.00001,0zm12.32298,0l2.87336,0l0,-5.31508l2.47812,0c0.47326,0 1.16235,0 1.41978,0.7463c0.17943,0.50967 0.58247,3.84069 0.70729,4.56879l3.11,0c-0.14562,-0.21843 -0.25483,-0.36405 -0.40045,-0.94653c-0.08841,-0.36405 -0.19763,-1.00113 -0.39785,-2.54833c-0.23923,-1.71102 -0.38225,-2.83957 -2.3637,-3.02158c0.63709,-0.18203 2.74595,-0.7619 2.74595,-3.22181c0,-0.85551 -0.32764,-1.82024 -1.14154,-2.53013c-1.05574,-0.91012 -2.53273,-0.91012 -3.98631,-0.89192l-5.03944,0l-0.0052,13.16028l0,0l0,0.00001zm2.78236,-11.08522l1.89304,0c0.89452,0 1.42238,0 1.85923,0.30944c0.25483,0.16382 0.69429,0.58247 0.69429,1.47439c0,0.92832 -0.53046,1.38598 -0.72809,1.529c-0.45506,0.36405 -1.11034,0.36405 -1.43798,0.36405l-2.27529,0l-0.0052,-3.67687l0,0l0,-0.00001zm22.55529,1.96586c-0.0208,-0.70989 -0.0754,-1.74742 -0.94913,-2.74855c-1.03233,-1.18315 -2.78236,-1.65642 -4.47517,-1.65642c-3.98631,0 -6.89608,2.49112 -6.89608,7.15351c0,1.38078 0.27303,3.47664 1.74482,4.91462c1.03753,1.01933 2.58473,1.74482 5.58812,1.74482c2.64194,0 3.98631,-0.45506 4.80541,-0.72809l0,-6.56844l-5.36448,0l0,2.18168l2.54573,0l0,2.76935c-0.30944,0.09101 -0.7827,0.25483 -2.14787,0.25483c-1.568,0 -2.43911,-0.40045 -3.0944,-1.13114c-0.96472,-1.03753 -1.09214,-2.63934 -1.09214,-3.53125c0,-2.02046 0.63709,-5.00824 3.84329,-5.00824c0.62148,0 1.65642,0.14562 2.19988,1.02193c0.33024,0.50967 0.35365,0.98292 0.36924,1.32877l2.92797,0l0,0.0026l-0.0052,0l0,0.00001zm3.69768,9.11937l2.81876,0l0,-13.19409l-2.81876,0l0,13.19409l0,0zm6.05878,-4.20474c0.0208,1.27416 0.05461,4.51158 5.09405,4.51158c3.64046,0 5.60632,-1.90864 5.60632,-4.27495c0,-2.56652 -2.23369,-3.18541 -4.50898,-3.73147c-1.89564,-0.47326 -2.86036,-0.69169 -2.86036,-1.91125c0,-1.07394 0.85291,-1.78903 2.16347,-1.78903c1.95025,0 2.09847,1.54979 2.12967,2.00485l2.71214,0c0,-0.43686 0,-1.49519 -0.7437,-2.44171c-0.98812,-1.23776 -2.60813,-1.54459 -3.97071,-1.54459c-3.65607,0 -5.20066,1.90864 -5.20066,4.07732c0,2.27529 1.70581,3.20361 4.83922,3.98631c1.67722,0.40045 2.49372,0.60068 2.49372,1.76563c0,1.11034 -0.96472,1.83843 -2.49372,1.83843c-2.42611,0 -2.38971,-1.87484 -2.38971,-2.49372l-2.87076,0l0,0.0026zm24.49773,-4.65979c0,-2.62113 -2.02046,-4.36596 -4.89642,-4.36596c-3.69768,0 -6.02237,2.76415 -6.02237,6.93509c0,3.25822 1.47179,6.60745 6.00677,6.60745c1.20396,0 2.67314,-0.27303 3.84069,-1.47179c1.05574,-1.09214 1.13634,-2.31169 1.18315,-3.0944l-2.96698,0c-0.05461,1.74742 -1.18315,2.49372 -2.3663,2.49372c-2.75115,0 -2.75115,-3.73147 -2.75115,-4.51418c0,-2.71214 0.87371,-4.89642 2.96958,-4.89642c1.90604,0 2.07767,1.85663 2.12967,2.31169l2.87336,0l0,-0.0052l0,-0.00001zm3.27382,8.86453l2.81876,0l0,-5.77013l5.01084,0l0,5.77013l2.82396,0l0,-13.15768l-2.86296,0l0,5.26047l-4.97184,0l0,-5.26047l-2.81876,0l0,13.15768l0,0l-0.00001,0zm14.73088,0l9.00495,0l0,-2.18168l-6.18619,0l0,-3.55206l5.60632,0l0,-2.14527l-5.60632,0l0,-3.13341l5.99117,0l0,-2.14527l-8.80993,0l0,13.15768l0,0l0.00001,0z"/>
		<path d="m40.91381,12.00133l0,0l-0.013,-0.23923c0,-1.54459 1.25596,-2.79796 2.81096,-2.79796c1.55239,0 2.81096,1.25076 2.81096,2.79796l-0.0104,0.23923l-5.59852,0l0,0z"/>
		<path d="m43.9302,23.24776l0,-3.01638l-2.75375,0l-9.96708,0l0.0052,0c0.17943,1.69541 1.6044,3.01638 3.33883,3.01638l9.3768,0l0,0z"/>
		<path d="m34.42338,12.00653l-3.03719,-3.02418l3.87449,0l0,0c1.75522,0 3.19841,1.32357 3.38043,3.02158l-4.21774,0.0026l0,0z"/>
		<path d="m28.90808,23.26596l-3.60146,0l-0.0052,0.013c0.28344,-1.72142 1.78903,-3.03459 3.59886,-3.03459l0.0078,3.02158l0,0z"/>
		<path d="m43.02788,27.02084l-7.15872,0l-6.96109,0l-0.013,0c-1.79683,0 -3.29202,-1.29236 -3.59105,-2.99558l7.18732,0.013l6.95849,0l0.013,0c1.79683,0 3.29202,1.29236 3.59366,2.99558l-0.02861,-0.013l0,0z"/>
		<path d="m32.69156,31.48041l-3.02418,3.03719l6.42282,0l9.62383,0l8.48489,0c1.76563,0 3.21141,-1.33657 3.38563,-3.04239l0.0026,0.0052l-6.37081,0l-9.90727,0l-8.6175,0l0,0l-0.00001,0z"/>
		<path d="m53.17177,12.00393l3.03719,-3.02158l-3.87449,0l0.0026,0.0026c-1.75522,0 -3.19841,1.32357 -3.38043,3.02158l4.21514,-0.0026l0,0z"/>
		<polygon points="49.25829248861555,15.751033843058849 52.295476328231416,12.7267827141427 52.295476328231416,12.713845224877105 35.05788942637537,12.739796660462389 38.08205262967931,15.763968465184917 49.24527185230363,15.763968465184917 "/>
		<path d="m43.9302,27.02344l0,-3.02158l14.22382,0.0026l0.0078,0c-0.17943,1.69801 -1.62521,3.02158 -3.38043,3.02158l-10.85119,-0.0026l0,0z"/>
		<path d="m44.6817,23.26856l3.05279,-3.02158l8.79173,0l0.0078,-0.0026c-0.17943,1.69801 -1.62521,3.02158 -3.38043,3.02158l-8.47188,0.0026l0,0z"/>
		<path d="m33.64588,27.75414l9.40801,0l6.79726,0l9.11417,0l0.0078,0c-0.18463,1.69281 -1.61481,3.02418 -3.36743,3.02418l-8.27165,0l-4.56359,0l-5.76754,0c-1.74742,0 -3.1698,-1.33137 -3.35703,-3.02418l0,0z"/>
		<path d="m30.06523,38.24648l0,0l-3.95511,3.9239l-2.14007,-2.14787l-0.0078,0.0104l0.0052,0l4.83402,-4.79241l10.29212,0l4.88343,0l5.91575,0l3.33102,0l2.90977,-0.0026c-0.18463,1.69281 -1.62781,3.00858 -3.37783,3.00858l-22.6905,0l0,0z"/>
		<path d="m31.58902,42.00656l19.32047,0.0078c1.75522,0 3.20101,-1.32357 3.38043,-3.02418l-23.99327,0.0026l-12.88725,12.82224c1.33657,1.07654 3.30762,1.01153 4.55058,-0.22362l9.62903,-9.58482l0,0l0,-0.00001z"/>
		<path d="m33.08681,45.75363l15.52399,0.0104c1.75522,0 3.19841,-1.32357 3.38043,-3.02418l-20.18378,0.0026l-9.13496,9.06996c1.33917,1.07914 3.31022,1.01153 4.55058,-0.22622l5.86375,-5.83255l0,0l-0.00001,-0.00001z"/>
		<path d="m33.30263,46.52333l16.70194,0l2.14527,3.02418l-8.84893,0l-8.72151,0l-2.09587,2.08807c-1.24295,1.23516 -3.21661,1.30017 -4.55058,0.22622l5.36448,-5.32809l0.0052,-0.0104l0,0l0,0.00001z"/>
		<path d="m55.32486,53.99669l-16.89956,0.0104c0.17943,1.69541 1.62261,3.04239 3.37783,3.04239l15.68001,0.0052l-2.15827,-3.05799l0,0l-0.00001,0z"/>
		<path d="m52.70632,50.28081l-17.74726,-0.0104c0.17943,1.69801 1.62261,3.03979 3.37783,3.03979l16.51211,0.0052l-2.14267,-3.03459l0,0l-0.00001,0z"/>
		<path d="m43.63376,91.53509l-5.33068,0l0.0052,0c0.16902,1.69021 1.5316,3.01118 3.18801,3.01118l2.14007,0l0.29384,0l0,-3.01118l-0.28084,0l-0.0156,0l0,0z"/>
		<path d="m46.10668,87.04432l-2.25969,0l-7.97782,0l0.0052,-0.0156c0.18463,-1.69541 1.63041,-3.02158 3.38824,-3.02158l3.82249,0l3.02418,0l3.03459,0l0,0l0,0l3.82249,0c1.75783,0 3.20101,1.32617 3.38563,3.02158l0.0052,0.0156l-7.97522,0l-2.25969,0l-0.0156,0l0,0z"/>
		<path d="m40.828,76.52077c1.5992,0.16122 2.87076,1.42238 3.04239,3.00598l0.0026,0.0156l-3.04499,0l0,-3.02158l0,0z"/>
		<path d="m45.83364,80.26005l1.99705,0l8.52389,0l-0.0052,0.0104c-0.18203,1.70061 -1.62781,3.02158 -3.38563,3.02158l0.0052,0l-7.13271,0l-2.76675,0l-7.21333,0l0.0052,-0.0104c0.18203,-1.70061 1.63041,-3.02158 3.38563,-3.02158l3.82509,0l2.76155,0l0,0z"/>
		<path d="m44.11742,87.74641l7.38494,0l-0.0078,0.0104c-0.17943,1.70061 -1.62781,3.02678 -3.38563,3.02678l0.0052,0l-3.99411,0l-6.09778,0l-7.97262,0l0.0052,-0.0156c0.18203,-1.70061 1.63041,-3.02158 3.38563,-3.02158l3.82249,0l3.27902,0l3.57546,0l0,0l0,0l-0.00001,0z"/>
		<path d="m47.03759,19.48768l-13.38131,-0.0078l-0.0078,0.013c0.17162,-1.70581 1.62261,-3.03459 3.38043,-3.03459l10.01128,0.0078l8.50569,0.0052l0.0078,-0.013c-0.17422,1.70581 -1.62261,3.03459 -3.38043,3.03459l-0.0182,0l-5.16686,-0.0026l0.04941,-0.0026l0,0z"/>
		<path d="m47.31322,69.01621l-4.95883,0.0052c0.17943,1.69541 1.62261,3.04239 3.37783,3.04239l1.47439,0l0.08061,0.02601l2.21028,0l0.03381,0.0052l6.82327,0l-0.0052,-0.0208c-0.16902,-1.63561 -1.5134,-2.93578 -3.1776,-3.03719l-3.64567,0.0104l-2.31689,-0.03121l0.10401,0l0,0z"/>
		<path d="m56.35199,65.27694l-14.8895,0c0.17943,1.70061 1.62521,3.04239 3.37783,3.04239l8.43288,-0.0104l3.07879,-3.03199l0,0z"/>
		<polygon points="48.20253525718181,64.54105736185556 56.96826769751715,64.53581240794483 60.04703270600112,61.503877345092405 45.160110286507916,61.503877345092405 42.107375082089675,64.54105736185556 "/>
		<path d="m46.03906,57.72556l-3.9265,0c0.17943,1.70061 1.62261,3.04239 3.37783,3.04239l0.54867,0l13.97158,0.0052l-0.0052,-0.0208c-0.17162,-1.63041 -1.516,-2.94098 -3.1776,-3.03719l-10.77838,0.0104l-0.0104,0l0,0z"/>
		<path d="m49.20628,72.77369l8.41207,0c1.72142,0.04161 3.13341,1.34697 3.31282,3.01638l-11.75351,-0.0052l-2.38971,0l-0.0182,0.0052c-1.72142,-0.04161 -3.1204,-1.34177 -3.30242,-3.01638l5.70773,0l0.03121,0l0,0l0.00001,0z"/>
		<path d="m55.13503,76.52077l-6.82587,0c-1.75783,0 -3.20101,1.32617 -3.38563,3.02678l10.21411,-0.0052l2.40791,0c1.75783,0 3.20361,-1.32617 3.38824,-3.02678l-5.75714,0.0052l-0.04161,0l0,0z"/>
		<path d="m61.33162,50.9283l2.16087,-2.14787l2.17128,-2.16087l0,0c1.07134,1.32877 0.98552,3.27382 -0.25223,4.50377l-1.94245,1.93465l-1.32877,1.32097l0.0026,0c-1.24295,1.22996 -3.19841,1.31057 -4.53498,0.24443l3.72367,-3.69508l0,0l0.00001,0z"/>
		<path d="m72.94991,17.13437l0,-4.53498l0,0.0052c1.23516,0 2.31429,0.65529 2.90717,1.63301l-2.90717,2.89677l0,0z"/>
		<path d="m73.13193,39.1488l7.51757,-7.47596l-0.0026,0.0026c1.07914,1.32877 0.99853,3.28162 -0.24443,4.51678l-7.51497,7.47596l0.0026,-0.0052c-1.07914,-1.32617 -0.99853,-3.27902 0.24183,-4.51418l0,0z"/>
		<path d="m79.57036,31.76645l-6.65685,6.62305l0,0c-1.08174,-1.32877 -0.99853,-3.28162 0.24183,-4.51418l6.65945,-6.62305l-0.0026,0c1.08174,1.32617 1.00113,3.27902 -0.24183,4.51418l0,0z"/>
		<path d="m69.20023,32.46593l0.0234,-0.0234l8.32366,-8.28206l3.24262,-3.22441l0.013,0.0052c1.07134,1.32617 0.98812,3.27122 -0.24963,4.50377l-6.82067,6.78427l0.0026,-0.0052c-1.23776,1.23516 -3.19841,1.31577 -4.53498,0.24183l0,0l-0.00001,0z"/>
		<path d="m77.43548,17.94308l-4.81582,4.78721l0.0052,-0.0026c-1.07914,-1.32877 -1.00113,-3.28162 0.24183,-4.51678l2.42091,-2.40791l4.86002,-4.83662l0.0026,-0.0026c1.08174,1.32877 0.99853,3.28162 -0.24183,4.51678l-2.47292,2.46251l0,0l0,0.00001z"/>
		<path d="m58.63508,20.72544l0,-4.27495l0.0078,-0.0078l6.87528,-6.83627l-0.0026,0.0052c1.07914,1.32877 0.99853,3.27902 -0.24183,4.51418l-6.63865,6.59965l0,0z"/>
		<path d="m60.55152,29.45215c-1.06874,-1.32617 -0.98552,-3.27382 0.25223,-4.50377l4.81842,-4.79241l2.13747,2.12707l-7.20813,7.16912l0,0l0.00001,0z"/>
		<path d="m58.94192,36.31443c-1.07134,-1.32617 -0.98552,-3.27382 0.25483,-4.50377l9.07516,-9.02835l2.13747,2.12707l-11.46746,11.40506l0,0z"/>
		<path d="m80.7223,15.69639c1.07914,1.32877 0.99853,3.28162 -0.24443,4.51678l-24.90338,24.78377c-1.07914,-1.32877 -0.99853,-3.28162 0.24183,-4.51678l24.90598,-24.78377l0,0z"/>
		<path d="m61.2172,12.88804l-2.55093,2.54313l0,-3.59366l0.37184,-0.0234c0.88671,0 1.65902,0.43946 2.17908,1.07394l0,0l0.00001,-0.00001z"/>
		<path d="m65.58576,36.0674l0,0c1.05314,1.30537 0.98812,3.20881 -0.19243,4.44397l-0.26263,0.26263l-2.3299,2.3221l-3.19841,3.1828l-1.39117,1.38338l0.0026,-0.0026c-1.24036,1.23516 -3.19581,1.31577 -4.53238,0.24443l3.8459,-3.81989l3.00598,-2.99039l2.67835,-2.66534l2.37411,-2.3611l0,0l0,0l-0.00001,0.00001z"/>
		<path d="m58.49466,48.43458l2.30649,-2.29349l2.67835,-2.66534l2.17128,-2.16087l0,0c1.07134,1.32877 0.98552,3.27382 -0.25223,4.50377l-2.3325,2.3221l-2.43651,2.42351l-0.32764,0.32764l0.0026,-0.0026c-1.24295,1.23516 -3.19841,1.31577 -4.53498,0.24443l2.72514,-2.69915l0,0l0,0l0,0.00001z"/>
		<path d="m77.5291,49.70874l-8.04283,8.00122l-1.46399,1.46139l-1.39117,1.38078l0.0026,0c-1.24036,1.23516 -3.19581,1.31577 -4.53238,0.24443l3.8485,-3.81989l1.39897,-1.39117l8.04283,-8.00902l1.60961,-1.6018l2.67835,-2.66274l2.17128,-2.16347l0,0c1.07134,1.32877 0.98552,3.27382 -0.25483,4.50377l-2.3299,2.3247l-1.73702,1.73182l0,0l-0.00001,0z"/>
		<path d="m67.71284,54.22031l4.47777,-4.45436l-0.013,-0.0052c-1.33917,-1.07394 -3.30242,-0.99072 -4.54278,0.24443l0.0026,-0.0026l-2.08807,2.07507l-2.70954,2.69655l-0.0078,0.0104l-2.61853,2.60553l0.013,0c1.33657,1.07654 3.30502,1.00113 4.54278,-0.24443l0.21843,-0.21843l2.24669,-2.22849l0.47326,-0.47326l0.0052,-0.0052l0,0l-0.00001,0z"/>
		<path d="m62.28074,18.16671l1.72142,-1.71102l-0.0104,0.0078l1.95545,-1.94505c1.08174,1.32877 0.99853,3.28162 -0.24183,4.51678l0,0l-1.27676,1.26896l-1.38078,1.37298l-0.41085,0.40825l-3.13861,3.123c-1.08174,-1.32877 -0.99853,-3.28162 0.24443,-4.51418l1.15455,-1.15195l0.0104,-0.0104l1.37298,-1.36518l0,0z"/>
		<polygon points="56.739404974649915,66.10119413343091 60.71536675293828,62.14356675671388 62.87100075886974,64.29140978883333 58.89772644603272,68.24388013725184 "/>
		<path d="m67.60882,64.88688l-2.26229,2.23889l-1.38857,1.38598l0.0026,-0.0052c-1.24295,1.23516 -3.19841,1.31577 -4.53498,0.24443l3.87189,-3.8641l4.31135,0l0,0l0.00001,0z"/>
		<path d="m77.38608,50.87629l3.9109,-3.89009l0,0c1.07654,1.32877 0.99853,3.28162 -0.24443,4.51678l-1.516,1.5108l-6.66205,6.62825l-5.14086,5.11485l0,0c-1.08174,-1.32617 -0.99853,-3.28162 0.24443,-4.51418l2.75115,-2.73295l6.64385,-6.61005l0.013,-0.0234l0,0l0,-0.00001z"/>
		<path d="m63.41969,70.08755l0,0l5.33328,-5.30208l3.24002,-3.22441l0.013,0.0052c1.07134,1.32617 0.98552,3.27122 -0.25483,4.50377l-4.04611,4.02791l-4.28535,-0.0104l0,0l0,0.00001z"/>
		<polygon
				points="67.97023134735537,70.8390542786019 70.87481954091163,67.9448642444022 70.877442017867,72.20937876768767 67.9754763012661,75.08538731442422 "/>
		<path d="m72.76528,49.10807l0.0052,-0.0026c-1.07914,-1.32877 -0.99853,-3.28162 0.24183,-4.51678l8.81773,-8.76572l0.0104,-0.0052c1.08174,1.32617 1.00113,3.27902 -0.24443,4.51418l-8.81253,8.76832l-0.0182,0.0078l0,0z"/>
		<path d="m74.52311,60.76796l-1.73702,0l2.95918,-2.94098l0.013,0.0104c0.67868,0.67088 0.67868,1.75783 0,2.43391c-0.34845,0.34585 -0.8087,0.50707 -1.26376,0.49667l0.02861,0l0,0l-0.00001,0z"/>
		<path d="m11.44424,14.38842l0,0c-1.33657,-1.07914 -3.30502,-1.00113 -4.54278,0.23663l2.14787,2.13747l2.39491,-2.37411l0,0l0,0.00001z"/>
		<path d="m19.01121,12.19634l-3.1412,3.1256l-3.0944,3.08139l-3.33102,3.31282l-4.06172,4.03831l0,0c-1.07134,-1.32617 -0.98552,-3.27122 0.25223,-4.50377l3.0944,-3.07879l2.99558,-2.98519l2.72775,-2.71214l0.02601,-0.03381c1.24036,-1.23516 3.19841,-1.31577 4.53238,-0.24443l0,0l0,0z"/>
		<path d="m19.33365,17.21239l-2.3325,2.3247l-3.19581,3.1828l-1.39117,1.38598l0.0026,-0.0026c-1.24295,1.23256 -3.19841,1.31577 -4.53238,0.24443l3.8485,-3.81989l3.00078,-2.99039l2.67835,-2.66534l2.17128,-2.16087l0,0c1.07134,1.32617 0.98812,3.27122 -0.24963,4.50117l0,0l-0.00001,0.00001z"/>
		<path d="m24.75535,17.07717l-5.55691,5.52831l-7.30693,7.26793l-0.0026,0.0052c-1.07134,-1.32877 -0.98812,-3.27382 0.24963,-4.50637l5.76234,-5.73634l7.0989,-7.06251l0.0026,-0.0052c1.07394,1.33397 0.99072,3.27642 -0.24703,4.50898l0,0l0,0.00001z"/>
		<path d="m11.0542,31.80545l2.43911,-2.42611l3.45844,-3.44284l2.66534,-2.65494l3.03719,-3.02418l0.0104,0.0104c1.07134,1.32877 0.98812,3.27382 -0.25223,4.50377l-1.69801,1.69021l-3.04239,3.02938l-2.08287,2.06987c-1.23776,1.23776 -3.20101,1.31837 -4.53498,0.24443l0,0z"/>
		<path d="m22.61788,25.55946l2.14787,2.13747l-4.06172,4.03831l0.0104,-0.0078c-1.24036,1.23256 -3.19581,1.31577 -4.53238,0.24443l6.43582,-6.41242l0,0l0,0.00001z"/>
		<path d="m30.09382,32.99641l-2.14267,-2.12967l-1.85663,1.84623l-6.72706,6.69325l0.0052,-0.0026c1.32357,1.07654 3.22441,1.05054 4.39456,-0.11181l6.32661,-6.29541l0,0l-0.00001,0z"/>
		<path d="m27.45449,30.34667l-2.14267,-2.12967l-1.85403,1.84623l-6.72706,6.69325l0.0052,-0.0026c1.32357,1.07914 3.22181,1.05314 4.38936,-0.11181l6.32921,-6.29541l0,0l-0.00001,0z"/>
		<path d="m6.54002,40.55817l-2.14787,-2.13747l0,-0.0052c1.24295,-1.23776 3.20361,-1.31837 4.54278,-0.24443l-2.39491,2.38711l0,0l0,-0.00001z"/>
		<path d="m7.87659,44.52368l-2.92277,2.90977l-2.62113,2.60813l0.0026,0c-1.07914,-1.33137 -0.99593,-3.28422 0.24443,-4.51938l-0.03381,0.03381l3.1828,-3.1672l0.41345,-0.41085l5.03944,-5.01865l2.62374,-2.60813l0,0c1.07914,1.33137 0.99593,3.28422 -0.24963,4.51938l-4.11893,4.09812l-1.5602,1.555l0,0l0.00001,0z"/>
		<path d="m15.61778,42.15738l-6.85188,6.81807l-6.02497,5.99637l-0.0078,-0.0156c-1.07654,-1.33137 -0.99593,-3.27902 0.24703,-4.51678l6.84667,-6.81287l6.02757,-5.99897l0.0052,0.013c1.07914,1.33137 0.99593,3.28422 -0.24703,4.51938l0.0052,-0.0026l0,0z"/>
		<path d="m10.57833,48.07314c-1.24555,1.23516 -1.32357,3.19061 -0.24703,4.51678l0.0078,0.013l9.66284,-9.61603l-4.32435,0.0104l-5.09925,5.07585l0,0l-0.00001,0z"/>
		<path d="m13.18126,55.03422c-1.24555,1.24036 -3.20621,1.32097 -4.54538,0.24963l0.0026,-0.0052l4.22034,-4.19693l4.74301,-4.71961l3.37783,-3.35963l4.32435,-0.0104l-6.52163,6.48783l-5.56731,5.53351l-0.03381,0.0208l0,0z"/>
		<path d="m35.28149,53.94208l-5.89496,5.86635l-0.0026,0c-1.07914,-1.32617 -0.99853,-3.28162 0.24443,-4.51418l1.35478,-1.35218l4.29835,0l0,0z"/>
		<path d="m24.65134,65.52656l-11.7015,11.63128c1.33397,1.07654 3.30762,1.01153 4.55058,-0.22362l11.46746,-11.40766l-4.31655,0l0,0z"/>
		<path d="m15.65938,62.83522l-2.14787,-2.13227l0,-0.0104c1.24295,-1.23516 3.20101,-1.31577 4.54278,-0.24443l-2.39491,2.38711l0,0l0,-0.00001z"/>
		<path d="m24.05326,59.79803l-6.85188,6.81547l-6.02757,5.99897l-0.0052,-0.0104c-1.07914,-1.33137 -0.99593,-3.28682 0.24703,-4.51938l6.84927,-6.81547l6.02497,-5.99897l0.0052,0.0156c1.07914,1.33137 0.99853,3.28162 -0.24703,4.51938l0.0052,-0.0052l0,0z"/>
		<path d="m23.99865,65.15472c1.18835,-1.23516 1.24815,-3.1438 0.18723,-4.45436l-2.09327,2.08287l-6.01457,5.98857c-1.24555,1.24036 -1.32617,3.19061 -0.24703,4.51938l0.0052,0.0104l6.55804,-6.52163l1.5758,-1.5706l0.02861,-0.05461l0,0l0,-0.00001z"/>
		<path d="m42.08916,68.39473l-2.13747,-2.12707l-3.47924,3.45844l-6.72706,6.69325l0.0026,-0.0052c1.32357,1.07654 3.22441,1.05054 4.39196,-0.11181l7.94922,-7.90761l0,0l-0.00001,0z"/>
		<path d="m39.00776,72.49025l-3.76788,3.74708l0.0052,0c1.32357,1.07654 3.22181,1.05054 4.39196,-0.11701l1.5134,-1.503l1.93985,-1.92945l-2.13747,-2.12707l-1.93205,1.91905l-0.013,0.0104l0,0l-0.00001,0z"/>
		<path d="m36.18641,54.15011l2.14787,2.13747l-8.04283,8.00382l0,0c-1.08174,-1.32617 -0.99853,-3.28162 0.24183,-4.51418l5.65312,-5.62711l0,0l0.00001,0z"/>
		<path d="m26.21413,73.6474c-1.24295,1.23516 -3.20101,1.31577 -4.54018,0.23923l0.03121,-0.0104l17.1492,-17.06338l2.14007,2.13227l-14.78029,14.70228l0,0l0,0.00001z"/>
		<path d="m26.7524,78.43202c-1.24036,1.24036 -3.20101,1.31577 -4.54018,0.24443l0.03381,-0.0156l19.27626,-19.18266l2.13747,2.12707l-16.90736,16.82675l0,0l0,0.00001z"/>
	</g>
</svg>
